<?xml version="1.0" encoding="utf-8"?>
<!-- Generator: Adobe Illustrator 22.0.0, SVG Export Plug-In . SVG Version: 6.00 Build 0)  -->
<svg version="1.1" id="Layer_1" xmlns="http://www.w3.org/2000/svg" xmlns:xlink="http://www.w3.org/1999/xlink" x="0px" y="0px"
	 viewBox="0 0 617.8 100" style="enable-background:new 0 0 617.8 100;" xml:space="preserve">
<style type="text/css">
	.st0{fill:#FFFFFF;}
	.st1{enable-background:new    ;}
</style>
<title>Zeichenfläche 1</title>
<g id="Your_Icon">
	<rect x="18" y="18" class="st0" width="17.1" height="41.3"/>
	<rect x="64.9" y="61.4" class="st0" width="17.1" height="20.6"/>
	<rect x="18" y="65.5" class="st0" width="17.1" height="16.5"/>
	<rect x="41.9" y="18" class="st0" width="17.1" height="20.6"/>
	<rect x="41.9" y="44.9" class="st0" width="17.1" height="37.1"/>
	<rect x="64.9" y="18" class="st0" width="17.1" height="37.1"/>
</g>
<g class="st1">
	<path class="st0" d="M155.9,30.1l-15.5,38.1h-5.1l-15.5-38.1h4.5c0.5,0,0.9,0.1,1.2,0.4c0.3,0.2,0.5,0.6,0.7,1l10.3,25.9
		c0.2,0.6,0.5,1.3,0.7,2.1c0.2,0.8,0.5,1.6,0.6,2.4c0.2-0.8,0.4-1.6,0.6-2.4s0.4-1.5,0.7-2.1l10.3-25.9c0.1-0.4,0.3-0.7,0.7-0.9
		c0.3-0.3,0.7-0.4,1.2-0.4H155.9z"/>
</g>
<g class="st1">
	<path class="st0" d="M177.7,64.3c-0.6,0.7-1.4,1.4-2.2,1.9c-0.8,0.5-1.7,1-2.7,1.3s-1.9,0.6-2.9,0.7c-1,0.2-2,0.2-3,0.2
		c-1.9,0-3.6-0.3-5.2-0.9s-3-1.5-4.1-2.8c-1.2-1.2-2.1-2.7-2.7-4.5c-0.6-1.8-1-3.9-1-6.2c0-1.9,0.3-3.6,0.9-5.2
		c0.6-1.6,1.4-3,2.5-4.2c1.1-1.2,2.4-2.1,4-2.8c1.6-0.7,3.3-1,5.3-1c1.6,0,3.2,0.3,4.5,0.8c1.4,0.5,2.6,1.3,3.6,2.3s1.8,2.3,2.4,3.8
		c0.6,1.5,0.9,3.2,0.9,5.1c0,0.8-0.1,1.3-0.3,1.6c-0.2,0.3-0.5,0.4-1,0.4h-17.6c0.1,1.6,0.3,3,0.7,4.2s1,2.2,1.7,3
		c0.7,0.8,1.6,1.4,2.6,1.8c1,0.4,2.1,0.6,3.3,0.6c1.1,0,2.1-0.1,3-0.4s1.6-0.6,2.2-0.9c0.6-0.3,1.1-0.6,1.5-0.9
		c0.4-0.3,0.8-0.4,1.1-0.4c0.4,0,0.8,0.2,1,0.5L177.7,64.3z M173.4,51.7c0-1-0.1-2-0.4-2.8c-0.3-0.9-0.7-1.6-1.3-2.3
		c-0.6-0.6-1.3-1.1-2.1-1.5s-1.7-0.5-2.8-0.5c-2.2,0-3.9,0.6-5.1,1.9c-1.2,1.3-2,3-2.4,5.2H173.4z"/>
	<path class="st0" d="M188.5,46.4c0.9-1.8,1.9-3.2,3.1-4.2c1.2-1,2.7-1.5,4.4-1.5c0.6,0,1.1,0.1,1.7,0.2c0.5,0.1,1,0.3,1.4,0.6
		l-0.3,3.9c-0.1,0.5-0.4,0.7-0.9,0.7c-0.2,0-0.6,0-1.1-0.1c-0.5-0.1-1-0.1-1.6-0.1c-0.8,0-1.6,0.1-2.2,0.4c-0.6,0.2-1.2,0.6-1.7,1.1
		c-0.5,0.5-0.9,1-1.3,1.7c-0.4,0.7-0.8,1.5-1.1,2.3v16.9h-5.2V41.2h3c0.6,0,0.9,0.1,1.2,0.3c0.2,0.2,0.3,0.6,0.4,1.1L188.5,46.4z"/>
	<path class="st0" d="M211.5,68.6c-2.2,0-3.8-0.6-5-1.8s-1.8-3-1.8-5.2V45.4h-3.1c-0.3,0-0.6-0.1-0.8-0.3s-0.3-0.5-0.3-0.8v-2.1
		l4.4-0.6l1.2-8c0.1-0.3,0.2-0.5,0.4-0.7c0.2-0.2,0.5-0.3,0.8-0.3h2.6v9h7.6v3.8h-7.6v15.8c0,1.1,0.3,1.9,0.8,2.4
		c0.5,0.5,1.2,0.8,2,0.8c0.5,0,0.9-0.1,1.2-0.2c0.3-0.1,0.6-0.3,0.9-0.4s0.5-0.3,0.6-0.4c0.2-0.1,0.3-0.2,0.5-0.2
		c0.2,0,0.3,0,0.4,0.1c0.1,0.1,0.2,0.2,0.3,0.4l1.5,2.5c-0.8,0.8-1.9,1.4-3,1.8S212.7,68.6,211.5,68.6z"/>
</g>
<g class="st1">
	<path class="st0" d="M227.1,46.4c0.9-1.8,1.9-3.2,3.1-4.2c1.2-1,2.7-1.5,4.4-1.5c0.6,0,1.1,0.1,1.7,0.2c0.5,0.1,1,0.3,1.4,0.6
		l-0.3,3.9c-0.1,0.5-0.4,0.7-0.9,0.7c-0.2,0-0.6,0-1.1-0.1c-0.5-0.1-1-0.1-1.6-0.1c-0.8,0-1.6,0.1-2.2,0.4c-0.6,0.2-1.2,0.6-1.7,1.1
		c-0.5,0.5-0.9,1-1.3,1.7c-0.4,0.7-0.8,1.5-1.1,2.3v16.9h-5.2V41.2h3c0.6,0,0.9,0.1,1.2,0.3c0.2,0.2,0.3,0.6,0.4,1.1L227.1,46.4z"/>
</g>
<g class="st1">
	<path class="st0" d="M262.7,64.3c-0.6,0.7-1.4,1.4-2.2,1.9c-0.8,0.5-1.7,1-2.7,1.3s-1.9,0.6-2.9,0.7c-1,0.2-2,0.2-3,0.2
		c-1.9,0-3.6-0.3-5.2-0.9s-3-1.5-4.1-2.8c-1.2-1.2-2.1-2.7-2.7-4.5c-0.6-1.8-1-3.9-1-6.2c0-1.9,0.3-3.6,0.9-5.2
		c0.6-1.6,1.4-3,2.5-4.2c1.1-1.2,2.4-2.1,4-2.8c1.6-0.7,3.3-1,5.3-1c1.6,0,3.2,0.3,4.5,0.8c1.4,0.5,2.6,1.3,3.6,2.3s1.8,2.3,2.4,3.8
		c0.6,1.5,0.9,3.2,0.9,5.1c0,0.8-0.1,1.3-0.3,1.6c-0.2,0.3-0.5,0.4-1,0.4h-17.6c0.1,1.6,0.3,3,0.7,4.2s1,2.2,1.7,3s1.6,1.4,2.6,1.8
		c1,0.4,2.1,0.6,3.3,0.6c1.1,0,2.1-0.1,3-0.4s1.6-0.6,2.2-0.9c0.6-0.3,1.1-0.6,1.5-0.9c0.4-0.3,0.8-0.4,1.1-0.4c0.4,0,0.8,0.2,1,0.5
		L262.7,64.3z M258.5,51.7c0-1-0.1-2-0.4-2.8c-0.3-0.9-0.7-1.6-1.3-2.3c-0.6-0.6-1.3-1.1-2.1-1.5s-1.7-0.5-2.8-0.5
		c-2.2,0-3.9,0.6-5.1,1.9c-1.2,1.3-2,3-2.4,5.2H258.5z"/>
</g>
<g class="st1">
	<path class="st0" d="M276.9,68.6c-2.2,0-3.8-0.6-5-1.8s-1.8-3-1.8-5.2V45.4H267c-0.3,0-0.6-0.1-0.8-0.3s-0.3-0.5-0.3-0.8v-2.1
		l4.4-0.6l1.2-8c0.1-0.3,0.2-0.5,0.4-0.7c0.2-0.2,0.5-0.3,0.8-0.3h2.6v9h7.6v3.8h-7.6v15.8c0,1.1,0.3,1.9,0.8,2.4
		c0.5,0.5,1.2,0.8,2,0.8c0.5,0,0.9-0.1,1.2-0.2c0.3-0.1,0.6-0.3,0.9-0.4s0.5-0.3,0.6-0.4c0.2-0.1,0.3-0.2,0.5-0.2
		c0.2,0,0.3,0,0.4,0.1c0.1,0.1,0.2,0.2,0.3,0.4l1.5,2.5c-0.8,0.8-1.9,1.4-3,1.8S278.2,68.6,276.9,68.6z"/>
	<path class="st0" d="M310.1,41.2v26.9H307c-0.7,0-1.2-0.3-1.4-1l-0.4-2.7c-0.6,0.6-1.2,1.2-1.8,1.7c-0.6,0.5-1.3,0.9-2,1.3
		c-0.7,0.4-1.5,0.6-2.3,0.8c-0.8,0.2-1.7,0.3-2.6,0.3c-1.5,0-2.8-0.2-3.9-0.7c-1.1-0.5-2.1-1.2-2.8-2.1c-0.8-0.9-1.3-2-1.7-3.2
		c-0.4-1.3-0.6-2.6-0.6-4.2V41.2h5.2v17.1c0,1.9,0.4,3.4,1.3,4.5c0.9,1.1,2.2,1.6,4.1,1.6c1.3,0,2.6-0.3,3.7-0.9
		c1.1-0.6,2.2-1.5,3.2-2.6V41.2H310.1z"/>
	<path class="st0" d="M322.2,45c0.6-0.6,1.2-1.2,1.8-1.7c0.6-0.5,1.3-0.9,2-1.3c0.7-0.4,1.5-0.6,2.3-0.8c0.8-0.2,1.7-0.3,2.6-0.3
		c1.5,0,2.8,0.2,3.9,0.7c1.1,0.5,2.1,1.2,2.8,2.1c0.8,0.9,1.3,2,1.7,3.2c0.4,1.3,0.6,2.6,0.6,4.2v17.1h-5.2V51
		c0-1.9-0.4-3.4-1.3-4.5c-0.9-1.1-2.2-1.6-4.1-1.6c-1.3,0-2.6,0.3-3.7,0.9s-2.2,1.5-3.2,2.6v19.7h-5.2V41.2h3.1c0.7,0,1.2,0.3,1.4,1
		L322.2,45z"/>
	<path class="st0" d="M369.9,42.3v1.9c0,0.6-0.4,1-1.2,1.2l-2.9,0.4c0.2,0.5,0.4,1.1,0.6,1.7c0.1,0.6,0.2,1.3,0.2,1.9
		c0,1.3-0.3,2.5-0.8,3.6c-0.5,1.1-1.2,2-2.1,2.7c-0.9,0.8-2,1.3-3.2,1.7c-1.2,0.4-2.6,0.6-4.1,0.6c-1.2,0-2.4-0.1-3.4-0.4
		c-0.5,0.3-0.9,0.7-1.2,1c-0.3,0.4-0.4,0.8-0.4,1.1c0,0.6,0.3,1.1,0.8,1.4c0.5,0.3,1.2,0.5,2,0.6c0.8,0.1,1.8,0.2,2.9,0.3
		c1.1,0,2.2,0.1,3.3,0.2c1.1,0.1,2.2,0.2,3.3,0.4c1.1,0.2,2,0.5,2.9,1c0.8,0.5,1.5,1.1,2,1.9s0.8,1.8,0.8,3.1c0,1.2-0.3,2.3-0.9,3.4
		c-0.6,1.1-1.4,2.1-2.5,2.9c-1.1,0.8-2.4,1.5-4,2c-1.6,0.5-3.4,0.8-5.4,0.8c-2,0-3.7-0.2-5.2-0.6c-1.5-0.4-2.7-0.9-3.7-1.6
		c-1-0.7-1.7-1.4-2.2-2.3c-0.5-0.9-0.7-1.8-0.7-2.7c0-1.3,0.4-2.4,1.2-3.3c0.8-0.9,1.9-1.6,3.4-2.1c-0.8-0.4-1.4-0.8-1.9-1.4
		c-0.5-0.6-0.7-1.4-0.7-2.4c0-0.4,0.1-0.8,0.2-1.2c0.1-0.4,0.4-0.8,0.6-1.2c0.3-0.4,0.7-0.8,1.1-1.2c0.4-0.4,0.9-0.7,1.5-1
		c-1.3-0.7-2.4-1.7-3.1-3c-0.8-1.2-1.1-2.7-1.1-4.3c0-1.3,0.3-2.5,0.8-3.6c0.5-1.1,1.2-2,2.1-2.7s2-1.3,3.3-1.7s2.6-0.6,4.1-0.6
		c2.3,0,4.3,0.5,6,1.5H369.9z M364.7,69.6c0-0.6-0.2-1.1-0.5-1.5c-0.4-0.4-0.8-0.7-1.4-0.9c-0.6-0.2-1.3-0.4-2.1-0.5
		s-1.7-0.2-2.6-0.2c-0.9-0.1-1.8-0.1-2.7-0.1s-1.8-0.1-2.7-0.3c-0.9,0.5-1.7,1-2.3,1.7s-0.9,1.4-0.9,2.3c0,0.6,0.1,1.1,0.4,1.6
		c0.3,0.5,0.7,0.9,1.4,1.3c0.6,0.4,1.4,0.6,2.3,0.8c0.9,0.2,2,0.3,3.3,0.3c1.3,0,2.4-0.1,3.4-0.3s1.8-0.5,2.5-0.9
		c0.7-0.4,1.2-0.9,1.5-1.4C364.5,70.8,364.7,70.2,364.7,69.6z M356.4,54.7c0.9,0,1.7-0.1,2.4-0.4c0.7-0.2,1.3-0.6,1.7-1
		c0.5-0.5,0.8-1,1.1-1.6c0.2-0.6,0.4-1.3,0.4-2.1c0-1.6-0.5-2.8-1.4-3.7c-0.9-0.9-2.3-1.4-4.2-1.4c-1.8,0-3.2,0.5-4.1,1.4
		s-1.4,2.2-1.4,3.7c0,0.8,0.1,1.5,0.4,2.1c0.2,0.6,0.6,1.2,1.1,1.6s1.1,0.8,1.7,1.1S355.5,54.7,356.4,54.7z"/>
	<path class="st0" d="M390.5,45.9c-0.1,0.2-0.3,0.4-0.5,0.5c-0.2,0.1-0.4,0.1-0.6,0.1c-0.3,0-0.6-0.1-0.9-0.3
		c-0.3-0.2-0.8-0.4-1.2-0.6c-0.5-0.2-1.1-0.4-1.7-0.6s-1.4-0.3-2.3-0.3c-0.7,0-1.4,0.1-2,0.3c-0.6,0.2-1.1,0.4-1.6,0.8
		c-0.4,0.3-0.8,0.7-1,1.2c-0.2,0.5-0.3,0.9-0.3,1.4c0,0.7,0.2,1.2,0.6,1.7s0.9,0.8,1.6,1.1c0.6,0.3,1.4,0.6,2.2,0.9
		c0.8,0.3,1.7,0.5,2.5,0.8c0.9,0.3,1.7,0.6,2.5,1s1.6,0.8,2.2,1.4s1.2,1.2,1.6,1.9s0.6,1.7,0.6,2.8c0,1.3-0.2,2.4-0.7,3.5
		c-0.5,1.1-1.1,2-2,2.8c-0.9,0.8-2,1.4-3.2,1.8c-1.3,0.4-2.8,0.7-4.4,0.7c-1.9,0-3.6-0.3-5.1-0.9s-2.9-1.4-3.9-2.4l1.2-2
		c0.1-0.2,0.3-0.4,0.5-0.6c0.2-0.1,0.5-0.2,0.8-0.2c0.3,0,0.7,0.1,1,0.4c0.4,0.2,0.8,0.5,1.3,0.8c0.5,0.3,1.1,0.6,1.8,0.8
		c0.7,0.2,1.6,0.4,2.6,0.4c0.9,0,1.7-0.1,2.3-0.3s1.2-0.5,1.6-0.9c0.4-0.4,0.8-0.8,1-1.3c0.2-0.5,0.3-1,0.3-1.6
		c0-0.7-0.2-1.3-0.6-1.8c-0.4-0.5-0.9-0.9-1.6-1.2c-0.6-0.3-1.4-0.6-2.2-0.9c-0.8-0.2-1.7-0.5-2.5-0.8c-0.9-0.3-1.7-0.6-2.5-1
		c-0.8-0.4-1.6-0.8-2.2-1.4c-0.6-0.6-1.2-1.3-1.6-2.1c-0.4-0.8-0.6-1.8-0.6-3c0-1,0.2-2,0.6-3c0.4-1,1.1-1.8,1.9-2.5
		c0.8-0.7,1.8-1.3,3-1.7c1.2-0.4,2.6-0.6,4.1-0.6c1.8,0,3.4,0.3,4.8,0.8s2.7,1.3,3.7,2.3L390.5,45.9z"/>
	<path class="st0" d="M402.6,45.3c0.6-0.7,1.2-1.3,1.8-1.8c0.6-0.6,1.3-1,2.1-1.4c0.7-0.4,1.5-0.7,2.4-0.9c0.8-0.2,1.7-0.3,2.7-0.3
		c1.5,0,2.9,0.3,4.2,0.9c1.2,0.6,2.3,1.5,3.2,2.6c0.9,1.2,1.6,2.6,2.1,4.3c0.5,1.7,0.7,3.7,0.7,5.9c0,2-0.3,3.8-0.8,5.6
		s-1.3,3.2-2.3,4.4c-1,1.3-2.2,2.2-3.7,3c-1.4,0.7-3.1,1.1-4.9,1.1c-1.6,0-3-0.3-4.1-0.8c-1.1-0.5-2.2-1.3-3.1-2.2v11.7h-5.2v-36
		h3.1c0.7,0,1.2,0.3,1.4,1L402.6,45.3z M402.8,61.5c0.8,1.1,1.8,1.9,2.7,2.3c1,0.4,2.1,0.7,3.3,0.7c2.4,0,4.2-0.9,5.5-2.6
		c1.3-1.7,1.9-4.2,1.9-7.5c0-1.7-0.1-3.2-0.4-4.4c-0.3-1.2-0.7-2.2-1.3-3s-1.2-1.3-2.1-1.7s-1.7-0.5-2.8-0.5c-1.5,0-2.8,0.3-3.9,1
		c-1.1,0.7-2.1,1.6-3.1,2.9V61.5z"/>
	<path class="st0" d="M432.8,29.1v39.1h-5.2V29.1H432.8z"/>
	<path class="st0" d="M439.4,45c1.5-1.4,3.1-2.5,4.9-3.2c1.8-0.7,3.7-1.1,5.8-1.1c1.5,0,2.9,0.3,4.1,0.8c1.2,0.5,2.2,1.2,3,2.1
		s1.4,2,1.8,3.2c0.4,1.3,0.6,2.6,0.6,4.2v17.2h-2.3c-0.5,0-0.9-0.1-1.2-0.3c-0.3-0.2-0.5-0.5-0.6-0.9l-0.6-2.4
		c-0.7,0.6-1.4,1.2-2,1.7c-0.7,0.5-1.4,0.9-2.1,1.2c-0.7,0.3-1.5,0.6-2.3,0.8c-0.8,0.2-1.7,0.3-2.8,0.3c-1.1,0-2.1-0.1-3-0.4
		c-0.9-0.3-1.7-0.7-2.4-1.3c-0.7-0.6-1.2-1.4-1.6-2.3c-0.4-0.9-0.6-2-0.6-3.2c0-1.1,0.3-2.1,0.9-3.1s1.5-1.9,2.8-2.6
		c1.3-0.8,3-1.4,5.1-1.9c2.1-0.5,4.7-0.8,7.7-0.8v-2c0-2-0.4-3.6-1.3-4.6c-0.9-1-2.1-1.5-3.8-1.5c-1.1,0-2.1,0.1-2.8,0.4
		s-1.4,0.6-2,0.9s-1,0.7-1.5,0.9c-0.4,0.3-0.8,0.4-1.3,0.4c-0.4,0-0.7-0.1-0.9-0.3c-0.3-0.2-0.5-0.4-0.6-0.7L439.4,45z M454.6,56.2
		c-2.1,0.1-3.9,0.2-5.4,0.5s-2.7,0.6-3.6,1c-0.9,0.4-1.6,0.9-2,1.5c-0.4,0.6-0.6,1.2-0.6,1.9c0,0.7,0.1,1.3,0.3,1.7
		c0.2,0.5,0.5,0.9,0.9,1.2c0.4,0.3,0.8,0.5,1.3,0.7c0.5,0.1,1.1,0.2,1.7,0.2c0.8,0,1.5-0.1,2.2-0.2c0.7-0.2,1.3-0.4,1.9-0.7
		c0.6-0.3,1.1-0.6,1.7-1.1c0.5-0.4,1.1-0.9,1.6-1.5V56.2z"/>
	<path class="st0" d="M471.5,45c0.6-0.6,1.2-1.2,1.8-1.7c0.6-0.5,1.3-0.9,2-1.3s1.5-0.6,2.3-0.8s1.7-0.3,2.6-0.3
		c1.5,0,2.8,0.2,3.9,0.7c1.1,0.5,2.1,1.2,2.8,2.1c0.8,0.9,1.3,2,1.7,3.2c0.4,1.3,0.6,2.6,0.6,4.2v17.1h-5.2V51
		c0-1.9-0.4-3.4-1.3-4.5c-0.9-1.1-2.2-1.6-4.1-1.6c-1.3,0-2.6,0.3-3.7,0.9s-2.2,1.5-3.2,2.6v19.7h-5.2V41.2h3.1c0.7,0,1.2,0.3,1.4,1
		L471.5,45z"/>
	<path class="st0" d="M495.4,65.1c0-0.5,0.1-0.9,0.3-1.4s0.4-0.8,0.7-1.1c0.3-0.3,0.7-0.6,1.1-0.8s0.9-0.3,1.4-0.3
		c0.5,0,0.9,0.1,1.4,0.3s0.8,0.4,1.1,0.8c0.3,0.3,0.6,0.7,0.8,1.1s0.3,0.9,0.3,1.4c0,0.5-0.1,1-0.3,1.4s-0.4,0.8-0.8,1.1
		s-0.7,0.6-1.1,0.7c-0.4,0.2-0.9,0.3-1.4,0.3c-0.5,0-1-0.1-1.4-0.3c-0.4-0.2-0.8-0.4-1.1-0.7c-0.3-0.3-0.6-0.7-0.7-1.1
		S495.4,65.6,495.4,65.1z"/>
	<path class="st0" d="M508.1,45c1.5-1.4,3.1-2.5,4.9-3.2c1.8-0.7,3.7-1.1,5.8-1.1c1.5,0,2.9,0.3,4.1,0.8c1.2,0.5,2.2,1.2,3,2.1
		s1.4,2,1.8,3.2c0.4,1.3,0.6,2.6,0.6,4.2v17.2H526c-0.5,0-0.9-0.1-1.2-0.3c-0.3-0.2-0.5-0.5-0.6-0.9l-0.6-2.4
		c-0.7,0.6-1.4,1.2-2,1.7c-0.7,0.5-1.4,0.9-2.1,1.2c-0.7,0.3-1.5,0.6-2.3,0.8c-0.8,0.2-1.7,0.3-2.8,0.3c-1.1,0-2.1-0.1-3-0.4
		c-0.9-0.3-1.7-0.7-2.4-1.3c-0.7-0.6-1.2-1.4-1.6-2.3c-0.4-0.9-0.6-2-0.6-3.2c0-1.1,0.3-2.1,0.9-3.1s1.5-1.9,2.8-2.6
		c1.3-0.8,3-1.4,5.1-1.9c2.1-0.5,4.7-0.8,7.7-0.8v-2c0-2-0.4-3.6-1.3-4.6c-0.9-1-2.1-1.5-3.8-1.5c-1.1,0-2.1,0.1-2.8,0.4
		s-1.4,0.6-2,0.9s-1,0.7-1.5,0.9c-0.4,0.3-0.8,0.4-1.3,0.4c-0.4,0-0.7-0.1-0.9-0.3c-0.3-0.2-0.5-0.4-0.6-0.7L508.1,45z M523.2,56.2
		c-2.1,0.1-3.9,0.2-5.4,0.5s-2.7,0.6-3.6,1c-0.9,0.4-1.6,0.9-2,1.5c-0.4,0.6-0.6,1.2-0.6,1.9c0,0.7,0.1,1.3,0.3,1.7
		c0.2,0.5,0.5,0.9,0.9,1.2c0.4,0.3,0.8,0.5,1.3,0.7c0.5,0.1,1.1,0.2,1.7,0.2c0.8,0,1.5-0.1,2.2-0.2c0.7-0.2,1.3-0.4,1.9-0.7
		c0.6-0.3,1.1-0.6,1.7-1.1c0.5-0.4,1.1-0.9,1.6-1.5V56.2z"/>
	<path class="st0" d="M540.1,45.3c0.6-0.7,1.2-1.3,1.8-1.8c0.6-0.6,1.3-1,2.1-1.4c0.7-0.4,1.5-0.7,2.4-0.9c0.8-0.2,1.7-0.3,2.7-0.3
		c1.5,0,2.9,0.3,4.2,0.9c1.2,0.6,2.3,1.5,3.2,2.6c0.9,1.2,1.6,2.6,2.1,4.3c0.5,1.7,0.7,3.7,0.7,5.9c0,2-0.3,3.8-0.8,5.6
		s-1.3,3.2-2.3,4.4c-1,1.3-2.2,2.2-3.7,3c-1.4,0.7-3.1,1.1-4.9,1.1c-1.6,0-3-0.3-4.1-0.8c-1.1-0.5-2.2-1.3-3.1-2.2v11.7h-5.2v-36
		h3.1c0.7,0,1.2,0.3,1.4,1L540.1,45.3z M540.4,61.5c0.8,1.1,1.8,1.9,2.7,2.3c1,0.4,2.1,0.7,3.3,0.7c2.4,0,4.2-0.9,5.5-2.6
		c1.3-1.7,1.9-4.2,1.9-7.5c0-1.7-0.1-3.2-0.4-4.4c-0.3-1.2-0.7-2.2-1.3-3s-1.2-1.3-2.1-1.7s-1.7-0.5-2.8-0.5c-1.5,0-2.8,0.3-3.9,1
		c-1.1,0.7-2.1,1.6-3.1,2.9V61.5z"/>
	<path class="st0" d="M570,45.3c0.6-0.7,1.2-1.3,1.8-1.8c0.6-0.6,1.3-1,2.1-1.4c0.7-0.4,1.5-0.7,2.4-0.9c0.8-0.2,1.7-0.3,2.7-0.3
		c1.5,0,2.9,0.3,4.2,0.9c1.2,0.6,2.3,1.5,3.2,2.6c0.9,1.2,1.6,2.6,2.1,4.3c0.5,1.7,0.7,3.7,0.7,5.9c0,2-0.3,3.8-0.8,5.6
		s-1.3,3.2-2.3,4.4c-1,1.3-2.2,2.2-3.7,3c-1.4,0.7-3.1,1.1-4.9,1.1c-1.6,0-3-0.3-4.1-0.8c-1.1-0.5-2.2-1.3-3.1-2.2v11.7H565v-36h3.1
		c0.7,0,1.2,0.3,1.4,1L570,45.3z M570.2,61.5c0.8,1.1,1.8,1.9,2.7,2.3c1,0.4,2.1,0.7,3.3,0.7c2.4,0,4.2-0.9,5.5-2.6
		c1.3-1.7,1.9-4.2,1.9-7.5c0-1.7-0.1-3.2-0.4-4.4c-0.3-1.2-0.7-2.2-1.3-3s-1.2-1.3-2.1-1.7s-1.7-0.5-2.8-0.5c-1.5,0-2.8,0.3-3.9,1
		c-1.1,0.7-2.1,1.6-3.1,2.9V61.5z"/>
</g>
</svg>
